<svg width="20" height="20" viewBox="0 0 20 20" fill="none" xmlns="http://www.w3.org/2000/svg">
<rect width="20" height="20" rx="10" fill="#1D1F22"/>
<path d="M8.68045 9.02612H9.73319C10.0704 9.02612 10.3484 8.96916 10.5672 8.85522C10.7859 8.73674 10.9477 8.57267 11.0525 8.36304C11.1619 8.14884 11.2166 7.90047 11.2166 7.61792C11.2166 7.36271 11.1665 7.13713 11.0662 6.94116C10.9705 6.74064 10.8224 6.58569 10.6219 6.47632C10.4213 6.36239 10.1684 6.30542 9.86307 6.30542C9.62154 6.30542 9.39823 6.35327 9.19315 6.44897C8.98807 6.54468 8.82401 6.67912 8.70096 6.85229C8.57792 7.02547 8.51639 7.23511 8.51639 7.4812H6.54081C6.54081 6.93433 6.68664 6.45809 6.97831 6.05249C7.27453 5.64689 7.67101 5.33016 8.16776 5.10229C8.6645 4.87443 9.21138 4.7605 9.80838 4.7605C10.4829 4.7605 11.073 4.86987 11.5789 5.08862C12.0848 5.30282 12.479 5.61955 12.7615 6.03882C13.0441 6.45809 13.1853 6.97762 13.1853 7.59741C13.1853 7.91187 13.1124 8.2172 12.9666 8.51343C12.8208 8.80509 12.6111 9.06942 12.3377 9.3064C12.0688 9.53882 11.7407 9.72567 11.3533 9.86694C10.9659 10.0037 10.5307 10.072 10.0476 10.072H8.68045V9.02612ZM8.68045 10.5232V9.50464H10.0476C10.59 9.50464 11.0662 9.56616 11.4764 9.68921C11.8865 9.81226 12.2306 9.98999 12.5086 10.2224C12.7866 10.4503 12.9962 10.7214 13.1375 11.0359C13.2788 11.3458 13.3494 11.6899 13.3494 12.0681C13.3494 12.533 13.2605 12.9477 13.0828 13.3123C12.9051 13.6723 12.6544 13.9776 12.3308 14.2283C12.0118 14.4789 11.6381 14.6703 11.2098 14.8025C10.7814 14.9301 10.3142 14.9939 9.80838 14.9939C9.38911 14.9939 8.97668 14.9369 8.57108 14.823C8.17004 14.7045 7.80545 14.5291 7.47733 14.2966C7.15376 14.0597 6.894 13.7634 6.69803 13.408C6.50663 13.0479 6.41092 12.6218 6.41092 12.1296H8.38651C8.38651 12.3848 8.45031 12.6127 8.57792 12.8132C8.70552 13.0138 8.88098 13.171 9.10428 13.2849C9.33215 13.3988 9.58508 13.4558 9.86307 13.4558C10.1775 13.4558 10.4464 13.3988 10.6697 13.2849C10.8976 13.1664 11.0708 13.0024 11.1892 12.7927C11.3123 12.5785 11.3738 12.3302 11.3738 12.0476C11.3738 11.683 11.3077 11.3914 11.1756 11.1726C11.0434 10.9493 10.8543 10.7852 10.6082 10.6804C10.3621 10.5756 10.0704 10.5232 9.73319 10.5232H8.68045Z" fill="white"/>
</svg>
